<?xml version="1.0" standalone="no"?>
<!DOCTYPE svg PUBLIC "-//W3C//DTD SVG 1.1//EN"
  "http://www.w3.org/Graphics/SVG/1.1/DTD/svg11.dtd">
<svg version="1.1" xmlns="http://www.w3.org/2000/svg" xmlns:xlink="http://www.w3.org/1999/xlink" width="1920" height="1080" viewBox="-716.8888888888889 -32 2513.777777777778 1414" id="ccdiagram"><filter id="grayscale"><feColorMatrix type="matrix" values="0.3333 0.3333 0.3333 0 0 0.3333 0.3333 0.3333 0 0 0.3333 0.3333 0.3333 0 0 0 0 0 1 0"></feColorMatrix></filter><defs><style type="text/css">@import url('https://fonts.googleapis.com/css?family=Open+Sans:400,700|Inconsolata:400');</style></defs><g><g pointer-events="auto"><g opacity="1"><g><g><polygon points="135 90, 990 90, 990 630, 135 630" fill="rgba(0, 0, 0, 0)" stroke-width="0" stroke="#818181"></polygon></g></g></g><g opacity="1"><g><g><polygon points="135 900, 608 900, 990 900, 990 1080, 135 1080" fill="rgba(0, 0, 0, 0)" stroke-width="0" stroke="#818181"></polygon></g></g></g><g opacity="1"><g id="da0dc2ed-c283-4a99-b343-9bb90b1b4ed5"><svg x="113" y="68" overflow="visible"><g fill="#9e9e9e"><polygon points="0 0, 540 0, 540 428, 0 428" stroke="#9e9e9e" stroke-width="40"></polygon></g></svg></g></g><g opacity="1"><g id="34d1c39d-0db9-448e-9db7-57d60f7a29fa"><svg x="743" y="68" overflow="visible"><g fill="#9e9e9e"><polygon points="0 0, 90 0, 90 428, 0 428" stroke="#9e9e9e" stroke-width="40"></polygon></g></svg></g></g><g opacity="1"><g id="35061507-a343-4084-b9cf-ab535efdab76"><svg x="923" y="68" overflow="visible"><g fill="#9e9e9e"><polygon points="0 0, 90 0, 90 428, 0 428" stroke="#9e9e9e" stroke-width="40"></polygon></g></svg></g></g></g><g pointer-events="auto"></g><g></g><g pointer-events="auto"><g opacity="1"><g id="795d2f1d-d41f-4464-8d49-fd13c1ef8094"><g><g><polygon points="1035 720, 1080 675, 1080 45, 1035 0, 45 0, 45 675, 90 720" stroke="#673ab7" stroke-width="8" fill="none"></polygon></g><g><polygon points="45 0, 0 0, 0 315, 45 360" stroke="#673ab7" stroke-width="8" fill="#673ab7"></polygon><text font-family="Inconsolata" font-size="20pt" font-weight="bold" fill="#ffffff" transform="translate(32 43) rotate(270)" text-anchor="end">vpc-target</text><g transform="translate(6 6) "><svg width="34" height="32" style="fill: rgb(255, 255, 255);"><svg xmlns="http://www.w3.org/2000/svg" width="34" height="32" viewBox="0 0 34 32"><path d="M34.286 20.571a6.858 6.858 0 0 1-6.857 6.857H8c-4.411 0-8-3.589-8-8a7.993 7.993 0 0 1 4.607-7.232c-.018-.25-.036-.518-.036-.768a9.137 9.137 0 0 1 9.143-9.143c3.821 0 7.089 2.339 8.464 5.679a4.439 4.439 0 0 1 2.964-1.107 4.58 4.58 0 0 1 4.571 4.571 4.49 4.49 0 0 1-.732 2.464c3.036.714 5.304 3.429 5.304 6.679z"></path></svg></svg></g></g></g></g></g><g opacity="1"><g id="f4035081-7c85-43f8-93d4-6cecc6381474"><g><g><polygon points="1035 1170, 1080 1125, 1080 855, 1035 810, 45 810, 45 1125, 90 1170" stroke="#3f51b5" stroke-width="8" fill="none"></polygon></g><g><polygon points="45 810, 0 810, 0 1080, 45 1125" stroke="#3f51b5" stroke-width="8" fill="#3f51b5"></polygon><text font-family="Inconsolata" font-size="20pt" font-weight="bold" fill="#ffffff" transform="translate(32 853) rotate(270)" text-anchor="end">privx.io</text><g transform="translate(6 816) "><svg width="34" height="32" style="fill: rgb(255, 255, 255);"><svg xmlns="http://www.w3.org/2000/svg" width="34" height="32" viewBox="0 0 34 32"><path d="M34.286 20.571a6.858 6.858 0 0 1-6.857 6.857H8c-4.411 0-8-3.589-8-8a7.993 7.993 0 0 1 4.607-7.232c-.018-.25-.036-.518-.036-.768a9.137 9.137 0 0 1 9.143-9.143c3.821 0 7.089 2.339 8.464 5.679a4.439 4.439 0 0 1 2.964-1.107 4.58 4.58 0 0 1 4.571 4.571 4.49 4.49 0 0 1-.732 2.464c3.036.714 5.304 3.429 5.304 6.679z"></path></svg></svg></g></g></g></g></g></g><g></g><g pointer-events="auto"><g opacity="1"><g id="9c1bdbdf-719b-4982-bd9e-58a06f1570c3"><svg x="158" y="135" overflow="visible"><polygon points="0 0, 810 0, 810 90, 0 90" fill="#f5b720"></polygon><polygon points="0 0, 810 0, 810 90, 0 90" fill="none" stroke-width="20" stroke="#f5b720" opacity="1"></polygon><g cursor="nwse-resize"><polygon points="0 0, -27 0, -27 -45, -72 45, -27 135, -27 90, 0 90" fill="#f5b720"></polygon><polygon points="810 0, 837 0, 837 -45, 882 45, 837 135, 837 90, 810 90" fill="#f5b720"></polygon></g></svg></g></g></g><g pointer-events="none"></g><g pointer-events="auto"><g><g cursor="cell"><line x1="225" y1="1260" x2="225" y2="1076" stroke="red" stroke-width="11" opacity="0"></line><line x1="225" y1="1260" x2="225" y2="1076" stroke="#000000" stroke-width="5" stroke-linecap="round"></line><polygon points="225 1058, 209 1091, 225 1082, 241 1091, 225 1058" stroke-linejoin="round" fill="#000000" stroke="#000000" stroke-width="1"></polygon></g></g><g><g><g cursor="cell"><line x1="203" y1="293" x2="203" y2="225" stroke="red" stroke-width="8" opacity="0"></line><line x1="203" y1="293" x2="203" y2="225" stroke="#000000" stroke-width="2" stroke-linecap="none"></line></g><g cursor="cell"><line x1="225" y1="315" x2="203" y2="293" stroke="red" stroke-width="8" opacity="0"></line><line x1="225" y1="315" x2="203" y2="293" stroke="#000000" stroke-width="2" stroke-linecap="round"></line></g><g cursor="cell"><line x1="923" y1="293" x2="923" y2="225" stroke="red" stroke-width="8" opacity="0"></line><line x1="923" y1="293" x2="923" y2="225" stroke="#000000" stroke-width="2" stroke-linecap="none"></line></g><g cursor="cell"><line x1="900" y1="315" x2="923" y2="293" stroke="red" stroke-width="8" opacity="0"></line><line x1="900" y1="315" x2="923" y2="293" stroke="#000000" stroke-width="2" stroke-linecap="round"></line></g><g cursor="cell"><line x1="225" y1="315" x2="900" y2="315" stroke="red" stroke-width="8" opacity="0"></line><line x1="225" y1="315" x2="900" y2="315" stroke="#000000" stroke-width="2" stroke-linecap="round"></line></g><g cursor="cell"><line x1="765" y1="315" x2="765" y2="572" stroke="red" stroke-width="8" opacity="0"></line><line x1="765" y1="315" x2="765" y2="572" stroke="#000000" stroke-width="2" stroke-linecap="round"></line><polygon points="765 585, 776 561, 765 567, 754 561, 765 585" stroke-linejoin="round" fill="#000000" stroke="#000000" stroke-width="1"></polygon></g></g></g><g><g cursor="cell"><line x1="405" y1="1013" x2="528" y2="1013" stroke="red" stroke-width="7" opacity="0"></line><line x1="405" y1="1013" x2="528" y2="1013" stroke="#000000" stroke-width="1" stroke-linecap="round"></line><polygon points="540 1013, 519 1003, 525 1013, 519 1022, 540 1013" stroke-linejoin="round" fill="#000000" stroke="#000000" stroke-width="1"></polygon></g></g><g><g cursor="cell"><line x1="360" y1="675" x2="338" y2="698" stroke="red" stroke-width="7" opacity="0"></line><line x1="360" y1="675" x2="338" y2="698" stroke="#000000" stroke-width="1" stroke-linecap="round"></line></g></g><g><g cursor="cell"><line x1="270" y1="630" x2="540" y2="630" stroke="red" stroke-width="11" opacity="0"></line><line x1="270" y1="630" x2="540" y2="630" stroke="#000000" stroke-width="5" stroke-linecap="round"></line></g></g><g><g cursor="cell"><line x1="405" y1="698" x2="405" y2="1013" stroke="red" stroke-width="7" opacity="0"></line><line x1="405" y1="698" x2="405" y2="1013" stroke="#000000" stroke-width="1" stroke-linecap="round"></line></g></g><g><g cursor="cell"><line x1="338" y1="698" x2="338" y2="1013" stroke="red" stroke-width="7" opacity="0"></line><line x1="338" y1="698" x2="338" y2="1013" stroke="#000000" stroke-width="1" stroke-linecap="round"></line></g></g><g><g cursor="cell"><line x1="360" y1="675" x2="405" y2="698" stroke="red" stroke-width="7" opacity="0"></line><line x1="360" y1="675" x2="405" y2="698" stroke="#000000" stroke-width="1" stroke-linecap="round"></line></g></g><g><g cursor="cell"><line x1="225" y1="675" x2="225" y2="949" stroke="red" stroke-width="11" opacity="0"></line><line x1="225" y1="675" x2="225" y2="949" stroke="#000000" stroke-width="5" stroke-linecap="round"></line><polygon points="225 968, 241 934, 225 943, 209 934, 225 968" stroke-linejoin="round" fill="#000000" stroke="#000000" stroke-width="1"></polygon></g></g><g><g cursor="cell"><line x1="540" y1="630" x2="540" y2="311" stroke="red" stroke-width="11" opacity="0"></line><line x1="540" y1="630" x2="540" y2="311" stroke="#000000" stroke-width="5" stroke-linecap="round"></line><polygon points="540 293, 524 326, 540 317, 556 326, 540 293" stroke-linejoin="round" fill="#000000" stroke="#000000" stroke-width="1"></polygon></g></g><g><g cursor="cell"><line x1="338" y1="1013" x2="282" y2="1013" stroke="red" stroke-width="7" opacity="0"></line><line x1="338" y1="1013" x2="282" y2="1013" stroke="#000000" stroke-width="1" stroke-linecap="round"></line><polygon points="270 1013, 291 1022, 285 1013, 291 1003, 270 1013" stroke-linejoin="round" fill="#000000" stroke="#000000" stroke-width="1"></polygon></g></g><g><g cursor="cell"><line x1="765" y1="968" x2="765" y2="687" stroke="red" stroke-width="7" opacity="0"></line><line x1="765" y1="968" x2="765" y2="687" stroke="#000000" stroke-width="1" stroke-linecap="round"></line><polygon points="765 675, 755 696, 765 690, 775 696, 765 675" stroke-linejoin="round" fill="#000000" stroke="#000000" stroke-width="1"></polygon></g></g><g><g cursor="cell"><line x1="585" y1="1058" x2="585" y2="1305" stroke="red" stroke-width="7" opacity="0"></line><line x1="585" y1="1058" x2="585" y2="1305" stroke="#000000" stroke-width="1" stroke-linecap="round"></line></g></g><g><g cursor="cell"><line x1="270" y1="630" x2="360" y2="675" stroke="red" stroke-width="7" opacity="0"></line><line x1="270" y1="630" x2="360" y2="675" stroke="#000000" stroke-width="1" stroke-linecap="round"></line></g></g><g><g cursor="cell"><line x1="630" y1="1013" x2="720" y2="1013" stroke="red" stroke-width="8" opacity="0"></line><line x1="630" y1="1013" x2="720" y2="1013" stroke="#000000" stroke-width="2" stroke-linecap="round"></line></g></g><g><g cursor="cell"><line x1="585" y1="1305" x2="282" y2="1305" stroke="red" stroke-width="7" opacity="0"></line><line x1="585" y1="1305" x2="282" y2="1305" stroke="#000000" stroke-width="1" stroke-linecap="round"></line><polygon points="270 1305, 291 1315, 285 1305, 291 1295, 270 1305" stroke-linejoin="round" fill="#000000" stroke="#000000" stroke-width="1"></polygon></g></g></g><g pointer-events="auto"><g opacity="1"><g id="8a555ddd-0a0f-4e41-b29b-a21af687f1f6" transform="translate(0 0)"><svg x="158" y="135" height="90" id="svg51" width="90" version="1.1"><defs id="defs4"></defs><g id="Working" transform="translate(0 40)"><g id="g883" transform="matrix(1.83333 0 0 1.83333 -.833 -40.833)"><path class="cls-1" id="path8" d="M44.31 44.31H5.69V5.69h38.62zm-36.62-2h34.62V7.69H7.69z" fill="#d86613" fill-opacity="1"></path><path class="cls-1" id="rect10" d="M11.21 1h2v5.69h-2z" fill="#d86613" fill-opacity="1"></path><path class="cls-1" id="rect12" d="M17.48 1h2v5.69h-2z" fill="#d86613" fill-opacity="1"></path><path class="cls-1" id="rect14" d="M23.76 1h2v5.69h-2z" fill="#d86613" fill-opacity="1"></path><path class="cls-1" id="rect16" d="M30.04 1h2v5.69h-2z" fill="#d86613" fill-opacity="1"></path><path class="cls-1" id="rect18" d="M36.32 1h2v5.69h-2z" fill="#d86613" fill-opacity="1"></path><path class="cls-1" id="rect20" d="M11.21 43.31h2V49h-2z" fill="#d86613" fill-opacity="1"></path><path class="cls-1" id="rect22" d="M17.48 43.31h2V49h-2z" fill="#d86613" fill-opacity="1"></path><path class="cls-1" id="rect24" d="M23.76 43.31h2V49h-2z" fill="#d86613" fill-opacity="1"></path><path class="cls-1" id="rect26" d="M30.04 43.31h2V49h-2z" fill="#d86613" fill-opacity="1"></path><path class="cls-1" id="rect28" d="M36.32 43.31h2V49h-2z" fill="#d86613" fill-opacity="1"></path><path class="cls-1" id="rect30" d="M43.31 11.45H49v2h-5.69z" fill="#d86613" fill-opacity="1"></path><path class="cls-1" id="rect32" d="M43.31 17.72H49v2h-5.69z" fill="#d86613" fill-opacity="1"></path><path class="cls-1" id="rect34" d="M43.31 24H49v2h-5.69z" fill="#d86613" fill-opacity="1"></path><path class="cls-1" id="rect36" d="M43.31 30.28H49v2h-5.69z" fill="#d86613" fill-opacity="1"></path><path class="cls-1" id="rect38" d="M43.31 36.55H49v2h-5.69z" fill="#d86613" fill-opacity="1"></path><path class="cls-1" id="rect40" d="M1 11.45h5.69v2H1z" fill="#d86613" fill-opacity="1"></path><path class="cls-1" id="rect42" d="M1 17.72h5.69v2H1z" fill="#d86613" fill-opacity="1"></path><path class="cls-1" id="rect44" d="M1 24h5.69v2H1z" fill="#d86613" fill-opacity="1"></path><path class="cls-1" id="rect46" d="M1 30.28h5.69v2H1z" fill="#d86613" fill-opacity="1"></path><path class="cls-1" id="rect48" d="M1 36.55h5.69v2H1z" fill="#d86613" fill-opacity="1"></path><path id="rect836" d="M7.69 7.69h34.62v34.62H7.69z" fill="#d86613" fill-opacity="1" opacity=".05" stroke="#d86613" stroke-opacity="0" stroke-width=".545"></path></g></g></svg><svg x="176" y="162" width="54" height="36" style="overflow: visible; cursor: default;"><text transform="" font-family="Open Sans" text-anchor="middle" x="50%" font-weight="bold" font-size="18pt" y="75%" fill="#d86613"><tspan>T3</tspan></text></svg></g></g><g opacity="1"><g id="9e2479cd-6c4b-4202-9f1f-1ff476917eeb" transform="translate(0 0)"><svg x="338" y="135" height="90" id="svg51" width="90" version="1.1"><defs id="defs4"></defs><g id="Working" transform="translate(0 40)"><g id="g883" transform="matrix(1.83333 0 0 1.83333 -.833 -40.833)"><path class="cls-1" id="path8" d="M44.31 44.31H5.69V5.69h38.62zm-36.62-2h34.62V7.69H7.69z" fill="#d86613" fill-opacity="1"></path><path class="cls-1" id="rect10" d="M11.21 1h2v5.69h-2z" fill="#d86613" fill-opacity="1"></path><path class="cls-1" id="rect12" d="M17.48 1h2v5.69h-2z" fill="#d86613" fill-opacity="1"></path><path class="cls-1" id="rect14" d="M23.76 1h2v5.69h-2z" fill="#d86613" fill-opacity="1"></path><path class="cls-1" id="rect16" d="M30.04 1h2v5.69h-2z" fill="#d86613" fill-opacity="1"></path><path class="cls-1" id="rect18" d="M36.32 1h2v5.69h-2z" fill="#d86613" fill-opacity="1"></path><path class="cls-1" id="rect20" d="M11.21 43.31h2V49h-2z" fill="#d86613" fill-opacity="1"></path><path class="cls-1" id="rect22" d="M17.48 43.31h2V49h-2z" fill="#d86613" fill-opacity="1"></path><path class="cls-1" id="rect24" d="M23.76 43.31h2V49h-2z" fill="#d86613" fill-opacity="1"></path><path class="cls-1" id="rect26" d="M30.04 43.31h2V49h-2z" fill="#d86613" fill-opacity="1"></path><path class="cls-1" id="rect28" d="M36.32 43.31h2V49h-2z" fill="#d86613" fill-opacity="1"></path><path class="cls-1" id="rect30" d="M43.31 11.45H49v2h-5.69z" fill="#d86613" fill-opacity="1"></path><path class="cls-1" id="rect32" d="M43.31 17.72H49v2h-5.69z" fill="#d86613" fill-opacity="1"></path><path class="cls-1" id="rect34" d="M43.31 24H49v2h-5.69z" fill="#d86613" fill-opacity="1"></path><path class="cls-1" id="rect36" d="M43.31 30.28H49v2h-5.69z" fill="#d86613" fill-opacity="1"></path><path class="cls-1" id="rect38" d="M43.31 36.55H49v2h-5.69z" fill="#d86613" fill-opacity="1"></path><path class="cls-1" id="rect40" d="M1 11.45h5.69v2H1z" fill="#d86613" fill-opacity="1"></path><path class="cls-1" id="rect42" d="M1 17.72h5.69v2H1z" fill="#d86613" fill-opacity="1"></path><path class="cls-1" id="rect44" d="M1 24h5.69v2H1z" fill="#d86613" fill-opacity="1"></path><path class="cls-1" id="rect46" d="M1 30.28h5.69v2H1z" fill="#d86613" fill-opacity="1"></path><path class="cls-1" id="rect48" d="M1 36.55h5.69v2H1z" fill="#d86613" fill-opacity="1"></path><path id="rect836" d="M7.69 7.69h34.62v34.62H7.69z" fill="#d86613" fill-opacity="1" opacity=".05" stroke="#d86613" stroke-opacity="0" stroke-width=".545"></path></g></g></svg><svg x="356" y="162" width="54" height="36" style="overflow: visible; cursor: default;"><text transform="" font-family="Open Sans" text-anchor="middle" x="50%" font-weight="bold" font-size="18pt" y="75%" fill="#d86613"><tspan>T3</tspan></text></svg></g></g><g opacity="1"><g id="cfb91154-4686-4851-a305-8414a113bd6d" transform="translate(0 0)"><svg x="518" y="135" height="90" id="svg51" width="90" version="1.1"><defs id="defs4"></defs><g id="Working" transform="translate(0 40)"><g id="g883" transform="matrix(1.83333 0 0 1.83333 -.833 -40.833)"><path class="cls-1" id="path8" d="M44.31 44.31H5.69V5.69h38.62zm-36.62-2h34.62V7.69H7.69z" fill="#d86613" fill-opacity="1"></path><path class="cls-1" id="rect10" d="M11.21 1h2v5.69h-2z" fill="#d86613" fill-opacity="1"></path><path class="cls-1" id="rect12" d="M17.48 1h2v5.69h-2z" fill="#d86613" fill-opacity="1"></path><path class="cls-1" id="rect14" d="M23.76 1h2v5.69h-2z" fill="#d86613" fill-opacity="1"></path><path class="cls-1" id="rect16" d="M30.04 1h2v5.69h-2z" fill="#d86613" fill-opacity="1"></path><path class="cls-1" id="rect18" d="M36.32 1h2v5.69h-2z" fill="#d86613" fill-opacity="1"></path><path class="cls-1" id="rect20" d="M11.21 43.31h2V49h-2z" fill="#d86613" fill-opacity="1"></path><path class="cls-1" id="rect22" d="M17.48 43.31h2V49h-2z" fill="#d86613" fill-opacity="1"></path><path class="cls-1" id="rect24" d="M23.76 43.31h2V49h-2z" fill="#d86613" fill-opacity="1"></path><path class="cls-1" id="rect26" d="M30.04 43.31h2V49h-2z" fill="#d86613" fill-opacity="1"></path><path class="cls-1" id="rect28" d="M36.32 43.31h2V49h-2z" fill="#d86613" fill-opacity="1"></path><path class="cls-1" id="rect30" d="M43.31 11.45H49v2h-5.69z" fill="#d86613" fill-opacity="1"></path><path class="cls-1" id="rect32" d="M43.31 17.72H49v2h-5.69z" fill="#d86613" fill-opacity="1"></path><path class="cls-1" id="rect34" d="M43.31 24H49v2h-5.69z" fill="#d86613" fill-opacity="1"></path><path class="cls-1" id="rect36" d="M43.31 30.28H49v2h-5.69z" fill="#d86613" fill-opacity="1"></path><path class="cls-1" id="rect38" d="M43.31 36.55H49v2h-5.69z" fill="#d86613" fill-opacity="1"></path><path class="cls-1" id="rect40" d="M1 11.45h5.69v2H1z" fill="#d86613" fill-opacity="1"></path><path class="cls-1" id="rect42" d="M1 17.72h5.69v2H1z" fill="#d86613" fill-opacity="1"></path><path class="cls-1" id="rect44" d="M1 24h5.69v2H1z" fill="#d86613" fill-opacity="1"></path><path class="cls-1" id="rect46" d="M1 30.28h5.69v2H1z" fill="#d86613" fill-opacity="1"></path><path class="cls-1" id="rect48" d="M1 36.55h5.69v2H1z" fill="#d86613" fill-opacity="1"></path><path id="rect836" d="M7.69 7.69h34.62v34.62H7.69z" fill="#d86613" fill-opacity="1" opacity=".05" stroke="#d86613" stroke-opacity="0" stroke-width=".545"></path></g></g></svg><svg x="536" y="162" width="54" height="36" style="overflow: visible; cursor: default;"><text transform="" font-family="Open Sans" text-anchor="middle" x="50%" font-weight="bold" font-size="18pt" y="75%" fill="#d86613"><tspan>T3</tspan></text></svg></g></g><g opacity="1"><g id="96f9ecee-71ea-471a-8f21-be0dabb3ec97" transform="translate(0 0)"><svg x="698" y="135" height="90" id="svg51" width="90" version="1.1"><defs id="defs4"></defs><g id="Working" transform="translate(0 40)"><g id="g883" transform="matrix(1.83333 0 0 1.83333 -.833 -40.833)"><path class="cls-1" id="path8" d="M44.31 44.31H5.69V5.69h38.62zm-36.62-2h34.62V7.69H7.69z" fill="#d86613" fill-opacity="1"></path><path class="cls-1" id="rect10" d="M11.21 1h2v5.69h-2z" fill="#d86613" fill-opacity="1"></path><path class="cls-1" id="rect12" d="M17.48 1h2v5.69h-2z" fill="#d86613" fill-opacity="1"></path><path class="cls-1" id="rect14" d="M23.76 1h2v5.69h-2z" fill="#d86613" fill-opacity="1"></path><path class="cls-1" id="rect16" d="M30.04 1h2v5.69h-2z" fill="#d86613" fill-opacity="1"></path><path class="cls-1" id="rect18" d="M36.32 1h2v5.69h-2z" fill="#d86613" fill-opacity="1"></path><path class="cls-1" id="rect20" d="M11.21 43.31h2V49h-2z" fill="#d86613" fill-opacity="1"></path><path class="cls-1" id="rect22" d="M17.48 43.31h2V49h-2z" fill="#d86613" fill-opacity="1"></path><path class="cls-1" id="rect24" d="M23.76 43.31h2V49h-2z" fill="#d86613" fill-opacity="1"></path><path class="cls-1" id="rect26" d="M30.04 43.31h2V49h-2z" fill="#d86613" fill-opacity="1"></path><path class="cls-1" id="rect28" d="M36.32 43.31h2V49h-2z" fill="#d86613" fill-opacity="1"></path><path class="cls-1" id="rect30" d="M43.31 11.45H49v2h-5.69z" fill="#d86613" fill-opacity="1"></path><path class="cls-1" id="rect32" d="M43.31 17.72H49v2h-5.69z" fill="#d86613" fill-opacity="1"></path><path class="cls-1" id="rect34" d="M43.31 24H49v2h-5.69z" fill="#d86613" fill-opacity="1"></path><path class="cls-1" id="rect36" d="M43.31 30.28H49v2h-5.69z" fill="#d86613" fill-opacity="1"></path><path class="cls-1" id="rect38" d="M43.31 36.55H49v2h-5.69z" fill="#d86613" fill-opacity="1"></path><path class="cls-1" id="rect40" d="M1 11.45h5.69v2H1z" fill="#d86613" fill-opacity="1"></path><path class="cls-1" id="rect42" d="M1 17.72h5.69v2H1z" fill="#d86613" fill-opacity="1"></path><path class="cls-1" id="rect44" d="M1 24h5.69v2H1z" fill="#d86613" fill-opacity="1"></path><path class="cls-1" id="rect46" d="M1 30.28h5.69v2H1z" fill="#d86613" fill-opacity="1"></path><path class="cls-1" id="rect48" d="M1 36.55h5.69v2H1z" fill="#d86613" fill-opacity="1"></path><path id="rect836" d="M7.69 7.69h34.62v34.62H7.69z" fill="#d86613" fill-opacity="1" opacity=".05" stroke="#d86613" stroke-opacity="0" stroke-width=".545"></path></g></g></svg><svg x="716" y="162" width="54" height="36" style="overflow: visible; cursor: default;"><text transform="" font-family="Open Sans" text-anchor="middle" x="50%" font-weight="bold" font-size="18pt" y="75%" fill="#d86613"><tspan>T3</tspan></text></svg></g></g><g opacity="1"><g id="528b1fab-0a28-4c7a-99c5-12e7eb7a9b6c" transform="translate(0 0)"><svg x="878" y="135" height="90" id="svg51" width="90" version="1.1"><defs id="defs4"></defs><g id="Working" transform="translate(0 40)"><g id="g883" transform="matrix(1.83333 0 0 1.83333 -.833 -40.833)"><path class="cls-1" id="path8" d="M44.31 44.31H5.69V5.69h38.62zm-36.62-2h34.62V7.69H7.69z" fill="#d86613" fill-opacity="1"></path><path class="cls-1" id="rect10" d="M11.21 1h2v5.69h-2z" fill="#d86613" fill-opacity="1"></path><path class="cls-1" id="rect12" d="M17.48 1h2v5.69h-2z" fill="#d86613" fill-opacity="1"></path><path class="cls-1" id="rect14" d="M23.76 1h2v5.69h-2z" fill="#d86613" fill-opacity="1"></path><path class="cls-1" id="rect16" d="M30.04 1h2v5.69h-2z" fill="#d86613" fill-opacity="1"></path><path class="cls-1" id="rect18" d="M36.32 1h2v5.69h-2z" fill="#d86613" fill-opacity="1"></path><path class="cls-1" id="rect20" d="M11.21 43.31h2V49h-2z" fill="#d86613" fill-opacity="1"></path><path class="cls-1" id="rect22" d="M17.48 43.31h2V49h-2z" fill="#d86613" fill-opacity="1"></path><path class="cls-1" id="rect24" d="M23.76 43.31h2V49h-2z" fill="#d86613" fill-opacity="1"></path><path class="cls-1" id="rect26" d="M30.04 43.31h2V49h-2z" fill="#d86613" fill-opacity="1"></path><path class="cls-1" id="rect28" d="M36.32 43.31h2V49h-2z" fill="#d86613" fill-opacity="1"></path><path class="cls-1" id="rect30" d="M43.31 11.45H49v2h-5.69z" fill="#d86613" fill-opacity="1"></path><path class="cls-1" id="rect32" d="M43.31 17.72H49v2h-5.69z" fill="#d86613" fill-opacity="1"></path><path class="cls-1" id="rect34" d="M43.31 24H49v2h-5.69z" fill="#d86613" fill-opacity="1"></path><path class="cls-1" id="rect36" d="M43.31 30.28H49v2h-5.69z" fill="#d86613" fill-opacity="1"></path><path class="cls-1" id="rect38" d="M43.31 36.55H49v2h-5.69z" fill="#d86613" fill-opacity="1"></path><path class="cls-1" id="rect40" d="M1 11.45h5.69v2H1z" fill="#d86613" fill-opacity="1"></path><path class="cls-1" id="rect42" d="M1 17.72h5.69v2H1z" fill="#d86613" fill-opacity="1"></path><path class="cls-1" id="rect44" d="M1 24h5.69v2H1z" fill="#d86613" fill-opacity="1"></path><path class="cls-1" id="rect46" d="M1 30.28h5.69v2H1z" fill="#d86613" fill-opacity="1"></path><path class="cls-1" id="rect48" d="M1 36.55h5.69v2H1z" fill="#d86613" fill-opacity="1"></path><path id="rect836" d="M7.69 7.69h34.62v34.62H7.69z" fill="#d86613" fill-opacity="1" opacity=".05" stroke="#d86613" stroke-opacity="0" stroke-width=".545"></path></g></g></svg><svg x="895" y="162" width="54" height="36" style="overflow: visible; cursor: default;"><text transform="" font-family="Open Sans" text-anchor="middle" x="50%" font-weight="bold" font-size="18pt" y="75%" fill="#d86613"><tspan>T3</tspan></text></svg></g></g><g opacity="1"><g id="3b8ef03c-6ad9-418f-838e-20e96fccef7f" transform="translate(0 0)"><g><polygon points="180 585, 270 585, 270 675, 180 675" fill="#ff9800"></polygon></g></g></g><g opacity="1"><g id="138b8771-0037-4595-badf-50937a034898" transform="translate(0 0)"><g><polygon points="720 585, 810 585, 810 675, 720 675" fill="#fff"></polygon></g></g></g><g opacity="1"><g id="5415057c-b200-441b-b479-9ec0ad60470c" transform="translate(0 0)"><g><polygon points="180 968, 270 968, 270 1058, 180 1058" fill="#000"></polygon></g></g></g><g opacity="1"><g id="ba091207-861a-4cf2-a315-d87262b86c3f" transform="translate(0 0)"><g><polygon points="540 968, 630 968, 630 1058, 540 1058" fill="#fff"></polygon></g></g></g><g opacity="1"><g id="d2438809-d9da-4784-86f8-4ffceb473eba" transform="translate(0 0)"><g><polygon points="720 968, 810 968, 810 1058, 720 1058" fill="#fff"></polygon></g></g></g><g opacity="1"><g id="e380aeb6-b36d-40e9-9cfa-c2706dbe2cca" transform="translate(0 0)"><svg x="180" y="1260" height="90" id="svg13" width="90" version="1.1"><defs id="defs4"></defs><g id="Working" transform="matrix(1.9149 0 0 1.9149 -2.872 -2.852)"><circle id="path819" cx="25.03" cy="13.644" fill="#232f3e" fill-opacity="1" opacity=".05" r="10.787" stroke="none" stroke-opacity="1" stroke-width=".522"></circle><path class="cls-1" id="path8-6" d="M47.5 48.44h-45a1 1 0 0 1-1-1v-3a22.73 22.73 0 0 1 17.36-22.1 1.06 1.06 0 0 1 .72.09 11.29 11.29 0 0 0 10.82 0 1 1 0 0 1 .71-.09A22.73 22.73 0 0 1 48.5 44.45v3a1 1 0 0 1-1 .99z" fill="#232f3e" fill-opacity="1" opacity=".05" stroke-width="1"></path><path class="cls-1" id="path8" d="M47.5 48.44h-45a1 1 0 0 1-1-1v-3a22.73 22.73 0 0 1 17.36-22.1 1.06 1.06 0 0 1 .72.09 11.29 11.29 0 0 0 10.82 0 1 1 0 0 1 .71-.09A22.73 22.73 0 0 1 48.5 44.45v3a1 1 0 0 1-1 .99zm-44-2h43v-2A20.71 20.71 0 0 0 31 24.39a13.51 13.51 0 0 1-6 1.43 13.21 13.21 0 0 1-6-1.43A20.72 20.72 0 0 0 3.5 44.45z" fill="#232f3e" fill-opacity="1"></path><path class="cls-1" id="path10" d="M25 25.75a12.18 12.18 0 0 1-5.9-1.5 12.13 12.13 0 1 1 18.06-10.58 12 12 0 0 1-6.32 10.58 12.38 12.38 0 0 1-5.84 1.5zm0-22.19a10.08 10.08 0 0 0-5 18.94 10.33 10.33 0 0 0 9.85 0A10.08 10.08 0 0 0 25 3.56z" fill="#232f3e" fill-opacity="1"></path></g></svg></g></g></g><g pointer-events="auto"></g><g pointer-events="auto"><g opacity="1"><g id="a8b1184e-6996-4b31-8171-19cf92667dae" transform="translate(0 0)"><svg x="225" y="630" overflow="visible"><g transform="scale(0.9659813662799094) "><circle cx="0" cy="0" fill="transparent" r="37.5"></circle><svg width="75" height="75" x="-37.5" y="-37.5"><svg xmlns="http://www.w3.org/2000/svg" viewBox="0 0 75 75"><defs><linearGradient id="OrangeGradient" x1="-15.54" y1="90.54" x2="90.53" y2="-15.53" gradientUnits="userSpaceOnUse"><stop offset="0" stop-color="#c8511b"></stop><stop offset="1" stop-color="#f90"></stop></linearGradient></defs><g id="Reference"><path id="Orange_Gradient" data-name="Orange Gradient" fill="url(#OrangeGradient)" d="M0 0h75v75H0z"></path><g id="Icon_Test" data-name="Icon Test" fill="#fff"><path d="M24.79 36.41a1.64 1.64 0 0 0 .24.23 5.32 5.32 0 0 0 .47.36l.11.06a4.82 4.82 0 0 0 .5.27l.31.13H26.63l.25.11c.47.17 1 .37 1.58.55l.91.27.49.13a31 31 0 0 0 7.64.89 27.7 27.7 0 0 0 11.4-2.18 4.44 4.44 0 0 0 2.6-4V18.88a1.58 1.58 0 0 0-.9-1.42l-12.42-5.8a1.52 1.52 0 0 0-1.33 0l-12.45 5.8a1.58 1.58 0 0 0-.9 1.42v14.4a4.44 4.44 0 0 0 1.09 2.92 2 2 0 0 0 .2.21zm5.1.14l-.84-.25c-.54-.17-1-.35-1.41-.49l-.36-.15-.34-.16a3.41 3.41 0 0 1-.33-.17l-.25-.19-.13-.14a.3.3 0 0 0-.08-.08l-.08-.09a2.42 2.42 0 0 1-.59-1.59V20.08l11 5.15v12.24a27.82 27.82 0 0 1-6.15-.8zm18.2-1.06a24.89 24.89 0 0 1-9.6 2V25.42l11-5v12.8a2.42 2.42 0 0 1-1.4 2.27zM37.5 13.55l11.06 5.16-10.88 4.88-.08-.05-10.75-5z"></path><path d="M54.78 27.68l-.56 1.92c4.49 1.32 7.28 3.2 7.28 4.9 0 3.31-9.86 7-24 7s-24-3.69-24-7c0-1.7 2.79-3.58 7.28-4.9l-.56-1.92c-5.62 1.65-8.72 4.08-8.72 6.82 0 5.84 13.4 9 26 9s26-3.16 26-9c0-2.74-3.1-5.16-8.72-6.82zM54.72 46.64l-4.65-2a1.3 1.3 0 0 0-1.14 0l-4.75 2.05a1.22 1.22 0 0 0-.68 1.1v5.15L39.07 51a1.34 1.34 0 0 0-1.14 0l-4.46 1.93v-5.16a1.25 1.25 0 0 0-.74-1.13l-4.66-2a1.28 1.28 0 0 0-1.13 0l-4.76 2.05a1.22 1.22 0 0 0-.68 1.1v6.08a1.25 1.25 0 0 0 .74 1.13l4.65 2H27a1.33 1.33 0 0 0 .5.11A1 1 0 0 0 28 57l4.49-1.93v5.15a1.25 1.25 0 0 0 .74 1.12l4.64 2h.07a1.29 1.29 0 0 0 .54.12 1.1 1.1 0 0 0 .51-.12l4.77-2.05a1.24 1.24 0 0 0 .68-1.1v-5.12L48.88 57H49a1.46 1.46 0 0 0 .54.12A1.1 1.1 0 0 0 50 57l4.78-2a1.22 1.22 0 0 0 .68-1.1v-6.13a1.25 1.25 0 0 0-.74-1.13zm-5.24-.08l2.73 1.16-2.56 1.05L47 47.63zm-11 6.38l2.73 1.16-2.56 1L36 54zm-11-6.38l2.72 1.17-2.56 1-2.64-1.1zm-4 2.6l3 1.28v4.2l-3-1.29zm5 5.47v-4l3-1.23v4zm6 .9l3 1.29V61l-3-1.29zm5 5.48V57l3-1.24v4zm6-11.85l3 1.28v4.2l-3-1.29zm5 5.48v-4l3-1.24v4z"></path></g></g></svg></svg></g></svg></g></g><g opacity="1"><g id="3d161ac4-ef32-4b9f-b546-f7bdaccab854" transform="translate(0 0)"><svg x="765" y="630" overflow="visible"><g transform="scale(1.3975424859373686) "><circle cx="0" cy="0" fill="#000000" r="23"></circle><svg width="30" height="32" x="-15" y="-16" style="fill: rgb(255, 255, 255);"><svg xmlns="http://www.w3.org/2000/svg" width="30" height="32" viewBox="0 0 30 32"><path d="M14.857 9.143a3.43 3.43 0 0 0-6.858 0c0 .518.125 1.018.339 1.482a3.533 3.533 0 0 0-1.482-.339 3.43 3.43 0 0 0 0 6.858 3.43 3.43 0 0 0 3.429-3.429c0-.518-.125-1.018-.339-1.482.464.214.964.339 1.482.339a3.43 3.43 0 0 0 3.429-3.429zm15.197 12.571c0 .411-1.643 2.054-2.054 2.054-.464 0-1.911-1.679-2.286-2.054L24 23.428l3.929 3.929c.321.321.5.768.5 1.214 0 1-1.143 2.143-2.143 2.143-.446 0-.893-.179-1.214-.5L13.09 18.232c-1.875 1.393-4.161 2.339-6.518 2.339C2.679 20.571.001 17.875.001 14c0-5.857 5.857-11.714 11.714-11.714 3.875 0 6.571 2.679 6.571 6.571 0 2.357-.946 4.643-2.339 6.518l6.339 6.339L24 20c-.375-.375-2.054-1.821-2.054-2.286 0-.411 1.643-2.054 2.054-2.054.143 0 .304.071.411.179.661.661 5.643 5.357 5.643 5.875z"></path></svg></svg></g></svg></g></g><g opacity="1"><g id="f15cd4ec-6dbd-4b06-b230-ccdfed74e131" transform="translate(0 0)"><svg x="585" y="1013" overflow="visible"><g transform="scale(1.3975424859373686) "><circle cx="0" cy="0" fill="#000000" r="25.5"></circle><svg width="37" height="32" x="-18.5" y="-16" style="fill: rgb(255, 255, 255);"><svg xmlns="http://www.w3.org/2000/svg" width="37" height="32" viewBox="0 0 37 32"><path d="M16 21.643C16 22.947 15.143 24 14.089 24H6.482c-1.054 0-1.911-1.054-1.911-2.357 0-2.357.571-5.071 2.929-5.071.714.714 1.696 1.143 2.786 1.143s2.071-.429 2.786-1.143c2.357 0 2.929 2.714 2.929 5.071zm-2.286-7.929a3.43 3.43 0 0 1-6.858 0 3.43 3.43 0 0 1 6.858 0zM32 21.143v1.143c0 .321-.25.571-.571.571H18.858a.564.564 0 0 1-.571-.571v-1.143c0-.321.25-.571.571-.571h12.571c.321 0 .571.25.571.571zm-6.857-4.572v1.143c0 .321-.25.571-.571.571h-5.714a.564.564 0 0 1-.571-.571v-1.143c0-.321.25-.571.571-.571h5.714c.321 0 .571.25.571.571zm6.857 0v1.143c0 .321-.25.571-.571.571H28a.564.564 0 0 1-.571-.571v-1.143c0-.321.25-.571.571-.571h3.429c.321 0 .571.25.571.571zM32 12v1.143c0 .321-.25.571-.571.571H18.858a.564.564 0 0 1-.571-.571V12c0-.321.25-.571.571-.571h12.571c.321 0 .571.25.571.571zm2.286 14.857v-20h-32v20c0 .304.268.571.571.571h30.857a.587.587 0 0 0 .571-.571zm2.285-21.714v21.714a2.866 2.866 0 0 1-2.857 2.857H2.857A2.866 2.866 0 0 1 0 26.857V5.143a2.866 2.866 0 0 1 2.857-2.857h30.857a2.866 2.866 0 0 1 2.857 2.857z"></path></svg></svg></g></svg></g></g><g opacity="1"><g id="635ad001-c7f8-47f1-bf64-ce10338c3b6d" transform="translate(0 0)"><svg x="765" y="1013" overflow="visible"><g transform="scale(1.3975424859373686) "><circle cx="0" cy="0" fill="#000000" r="23"></circle><svg width="30" height="32" x="-15" y="-16" style="fill: rgb(255, 255, 255);"><svg xmlns="http://www.w3.org/2000/svg" width="30" height="32" viewBox="0 0 30 32"><path d="M14.857 9.143a3.43 3.43 0 0 0-6.858 0c0 .518.125 1.018.339 1.482a3.533 3.533 0 0 0-1.482-.339 3.43 3.43 0 0 0 0 6.858 3.43 3.43 0 0 0 3.429-3.429c0-.518-.125-1.018-.339-1.482.464.214.964.339 1.482.339a3.43 3.43 0 0 0 3.429-3.429zm15.197 12.571c0 .411-1.643 2.054-2.054 2.054-.464 0-1.911-1.679-2.286-2.054L24 23.428l3.929 3.929c.321.321.5.768.5 1.214 0 1-1.143 2.143-2.143 2.143-.446 0-.893-.179-1.214-.5L13.09 18.232c-1.875 1.393-4.161 2.339-6.518 2.339C2.679 20.571.001 17.875.001 14c0-5.857 5.857-11.714 11.714-11.714 3.875 0 6.571 2.679 6.571 6.571 0 2.357-.946 4.643-2.339 6.518l6.339 6.339L24 20c-.375-.375-2.054-1.821-2.054-2.286 0-.411 1.643-2.054 2.054-2.054.143 0 .304.071.411.179.661.661 5.643 5.357 5.643 5.875z"></path></svg></svg></g></svg></g></g></g><g pointer-events="auto"><g opacity="1"><g id="68927ed3-2649-481a-9d43-df6444f3dc9c" transform="translate(0 0)"><svg x="90" y="518" overflow="visible"><text stroke="#000000" stroke-width="0" font-family="Open Sans" y="46.76" font-size="34pt" fill="#ffffff" font-weight="bold" transform="rotate(270)" xml:space="preserve"><tspan x="8" dy="0">az</tspan></text><text font-family="Open Sans" y="46.76" font-size="34pt" fill="#ffffff" font-weight="bold" transform="rotate(270)" xml:space="preserve"><tspan x="8" dy="0">az</tspan></text></svg></g></g><g opacity="1"><g id="8945b301-7f45-42fe-a799-489205d91122" transform="translate(0 0)"><svg x="90" y="450" overflow="visible"><text stroke="#000000" stroke-width="0" font-family="Open Sans" y="71.84" font-size="56pt" fill="#ffffff" font-weight="bold" transform="rotate(270)" xml:space="preserve"><tspan x="8" dy="0">A</tspan></text><text font-family="Open Sans" y="71.84" font-size="56pt" fill="#ffffff" font-weight="bold" transform="rotate(270)" xml:space="preserve"><tspan x="8" dy="0">A</tspan></text></svg></g></g><g opacity="1"><g id="af7ed595-56f6-4ac1-b9a9-73c598599a57" transform="translate(0 0)"><svg x="765" y="450" overflow="visible"><text stroke="#000000" stroke-width="0" font-family="Open Sans" y="71.84" font-size="56pt" fill="#ffffff" font-weight="bold" transform="rotate(270)" xml:space="preserve"><tspan x="8" dy="0">B</tspan></text><text font-family="Open Sans" y="71.84" font-size="56pt" fill="#ffffff" font-weight="bold" transform="rotate(270)" xml:space="preserve"><tspan x="8" dy="0">B</tspan></text></svg></g></g><g opacity="1"><g id="b964fa2b-5524-4643-b8e3-0b8c78337ae9" transform="translate(0 0)"><svg x="945" y="450" overflow="visible"><text stroke="#000000" stroke-width="0" font-family="Open Sans" y="71.84" font-size="56pt" fill="#ffffff" font-weight="bold" transform="rotate(270)" xml:space="preserve"><tspan x="8" dy="0">C</tspan></text><text font-family="Open Sans" y="71.84" font-size="56pt" fill="#ffffff" font-weight="bold" transform="rotate(270)" xml:space="preserve"><tspan x="8" dy="0">C</tspan></text></svg></g></g><g opacity="1"><g id="ba69be2e-8a32-47fe-9e41-29580af2a741" transform="translate(0 0)"><svg x="765" y="518" overflow="visible"><text stroke="#000000" stroke-width="0" font-family="Open Sans" y="46.76" font-size="34pt" fill="#ffffff" font-weight="bold" transform="rotate(270)" xml:space="preserve"><tspan x="8" dy="0">az</tspan></text><text font-family="Open Sans" y="46.76" font-size="34pt" fill="#ffffff" font-weight="bold" transform="rotate(270)" xml:space="preserve"><tspan x="8" dy="0">az</tspan></text></svg></g></g><g opacity="1"><g id="b93e84be-9c44-4a0d-9932-62c85832b921" transform="translate(0 0)"><svg x="945" y="518" overflow="visible"><text stroke="#000000" stroke-width="0" font-family="Open Sans" y="46.76" font-size="34pt" fill="#ffffff" font-weight="bold" transform="rotate(270)" xml:space="preserve"><tspan x="8" dy="0">az</tspan></text><text font-family="Open Sans" y="46.76" font-size="34pt" fill="#ffffff" font-weight="bold" transform="rotate(270)" xml:space="preserve"><tspan x="8" dy="0">az</tspan></text></svg></g></g><g opacity="1"><g id="974387e9-ecaa-4f74-994e-61456af4d3ca" transform="translate(0 0)"><svg x="450" y="248" overflow="visible"><text stroke="#ffffff" stroke-width="0" font-family="Open Sans" y="36.5" font-size="25pt" fill="#000000" font-weight="bold" transform="" xml:space="preserve"><tspan x="8" dy="0">EC2 targets</tspan></text><text font-family="Open Sans" y="36.5" font-size="25pt" fill="#000000" font-weight="bold" transform="" xml:space="preserve"><tspan x="8" dy="0">EC2 targets</tspan></text></svg></g></g><g opacity="1"><g id="1bd59bec-00ed-49b2-ae61-8d2669935de9" transform="translate(0 0)"><svg x="180" y="990" overflow="visible"><text stroke="#000000" stroke-width="0" font-family="Open Sans" y="30.799999999999997" font-size="20pt" fill="#ffffff" font-weight="bold" transform="" xml:space="preserve"><tspan x="8" dy="0">privx</tspan></text><text font-family="Open Sans" y="30.799999999999997" font-size="20pt" fill="#ffffff" font-weight="bold" transform="" xml:space="preserve"><tspan x="8" dy="0">privx</tspan></text></svg></g></g><g opacity="1"><g id="4d9c51c6-07d5-4b32-8b53-10774406160c" transform="translate(0 0)"><svg x="563" y="923" overflow="visible"><text stroke="#ffffff" stroke-width="0" font-family="Open Sans" y="26.24" font-size="16pt" fill="#000000" font-weight="bold" transform="" xml:space="preserve"><tspan x="8" dy="0">role</tspan></text><text font-family="Open Sans" y="26.24" font-size="16pt" fill="#000000" font-weight="bold" transform="" xml:space="preserve"><tspan x="8" dy="0">role</tspan></text></svg></g></g><g opacity="1"><g id="eec1142d-bac9-4025-9068-edfd5bb6aa01" transform="translate(0 0)"><svg x="810" y="1013" overflow="visible"><text stroke="#ffffff" stroke-width="0" font-family="Open Sans" y="26.24" font-size="16pt" fill="#000000" font-weight="bold" transform="" xml:space="preserve"><tspan x="8" dy="0">ssh key</tspan></text><text font-family="Open Sans" y="26.24" font-size="16pt" fill="#000000" font-weight="bold" transform="" xml:space="preserve"><tspan x="8" dy="0">ssh key</tspan></text></svg></g></g><g opacity="1"><g id="53e28436-bca4-4876-b3d1-8b384659cc1d" transform="translate(0 0)"><svg x="810" y="630" overflow="visible"><text stroke="#ffffff" stroke-width="0" font-family="Open Sans" y="26.24" font-size="16pt" fill="#000000" font-weight="bold" transform="" xml:space="preserve"><tspan x="8" dy="0">ssh key</tspan></text><text font-family="Open Sans" y="26.24" font-size="16pt" fill="#000000" font-weight="bold" transform="" xml:space="preserve"><tspan x="8" dy="0">ssh key</tspan></text></svg></g></g><g opacity="1"><g id="0ca213d1-caf6-4986-ac4c-d0a006c7e802" transform="translate(0 0)"><svg x="405" y="1013" overflow="visible"><text stroke="#ffffff" stroke-width="0" font-family="Open Sans" y="26.24" font-size="16pt" fill="#000000" font-weight="bold" transform="rotate(270)" xml:space="preserve"><tspan x="8" dy="0">create privx role</tspan></text><text font-family="Open Sans" y="26.24" font-size="16pt" fill="#000000" font-weight="bold" transform="rotate(270)" xml:space="preserve"><tspan x="8" dy="0">create privx role</tspan></text></svg></g></g><g opacity="1"><g id="4ae4613a-ac6f-4c5c-8133-f7ab1f62aee3" transform="translate(0 0)"><svg x="765" y="990" overflow="visible"><text stroke="#ffffff" stroke-width="0" font-family="Open Sans" y="26.24" font-size="16pt" fill="#000000" font-weight="bold" transform="rotate(270)" xml:space="preserve"><tspan x="8" dy="0">import ssh key</tspan></text><text font-family="Open Sans" y="26.24" font-size="16pt" fill="#000000" font-weight="bold" transform="rotate(270)" xml:space="preserve"><tspan x="8" dy="0">import ssh key</tspan></text></svg></g></g><g opacity="1"><g id="94f25066-8766-4cb6-a499-cddf17093683" transform="translate(0 0)"><svg x="293" y="1013" overflow="visible"><text stroke="#ffffff" stroke-width="0" font-family="Open Sans" y="26.24" font-size="16pt" fill="#000000" font-weight="bold" transform="rotate(270)" xml:space="preserve"><tspan x="8" dy="0">register extender</tspan></text><text font-family="Open Sans" y="26.24" font-size="16pt" fill="#000000" font-weight="bold" transform="rotate(270)" xml:space="preserve"><tspan x="8" dy="0">register extender</tspan></text></svg></g></g><g opacity="1"><g id="482d7818-97dc-41ff-8a2a-00b48f6adbc9" transform="translate(0 0)"><svg x="585" y="1328" overflow="visible"><text stroke="#ffffff" stroke-width="0" font-family="Open Sans" y="26.24" font-size="16pt" fill="#000000" font-weight="bold" transform="rotate(270)" xml:space="preserve"><tspan x="8" dy="0">grant access</tspan></text><text font-family="Open Sans" y="26.24" font-size="16pt" fill="#000000" font-weight="bold" transform="rotate(270)" xml:space="preserve"><tspan x="8" dy="0">grant access</tspan></text></svg></g></g><g opacity="1"><g id="c5b7ac7f-e595-4f9c-ad9f-dcdce061830e" transform="translate(0 0)"><svg x="169" y="548" overflow="visible"><text stroke="#ffffff" stroke-width="0" font-family="Open Sans" y="26.24" font-size="16pt" fill="#000000" font-weight="bold" transform="" xml:space="preserve"><tspan x="8" dy="0">extender</tspan></text><text font-family="Open Sans" y="26.24" font-size="16pt" fill="#000000" font-weight="bold" transform="" xml:space="preserve"><tspan x="8" dy="0">extender</tspan></text></svg></g></g></g><g></g></g></svg>