<?xml version="1.0" standalone="no"?>
<!DOCTYPE svg PUBLIC "-//W3C//DTD SVG 1.1//EN"
  "http://www.w3.org/Graphics/SVG/1.1/DTD/svg11.dtd">
<svg version="1.1" xmlns="http://www.w3.org/2000/svg" xmlns:xlink="http://www.w3.org/1999/xlink" width="1920" height="1080" viewBox="-1040.888888888889 -32 1889.7777777777778 1063" id="ccdiagram"><filter id="grayscale"><feColorMatrix type="matrix" values="0.3333 0.3333 0.3333 0 0 0.3333 0.3333 0.3333 0 0 0.3333 0.3333 0.3333 0 0 0 0 0 1 0"></feColorMatrix></filter><defs><style type="text/css">@import url('https://fonts.googleapis.com/css?family=Open+Sans:400,700|Inconsolata:400');</style></defs><g><g style="pointer-events: none;"><g><pattern id="gridPatternMinor" x="0" y="37" width="128" height="74" patternUnits="userSpaceOnUse"><path d="M 0 0 L 128 74" stroke="#eee" stroke-width="1"></path><path d="M 128 0 L 0 74" stroke="#eee" stroke-width="1"></path></pattern><polygon points="0 0, 768 444, -192 999, -960 555" fill="url(#gridPatternMinor)"></polygon></g><polygon points="-960 555, -960 565, -192 1009, -192 999" stroke-linejoin="round" stroke="#54626f" stroke-width="1" fill="#f9f9f9"></polygon><polygon points="-192 1009, 768 454, 768 444, -192 999" stroke-linejoin="round" stroke="#54626f" stroke-width="1" fill="#e2e2e2"></polygon></g><g pointer-events="auto"><g opacity="1"><g><g><polygon points="32 93, 640 444, 256 666, -352 315" fill="rgba(0, 0, 0, 0)" stroke-width="0" stroke="#818181"></polygon></g></g></g><g opacity="1"><g><g><polygon points="-544 426, -208 620, 64 777, -64 851, -672 500" fill="rgba(0, 0, 0, 0)" stroke-width="0" stroke="#818181"></polygon></g></g></g><g opacity="1"><g id="da0dc2ed-c283-4a99-b343-9bb90b1b4ed5"><svg x="32" y="74" overflow="visible"><g fill="#9e9e9e"><polygon points="0 0, 384 222, 80 398, -304 176" stroke="#9e9e9e" stroke-width="40"></polygon></g></svg></g></g><g opacity="1"><g id="34d1c39d-0db9-448e-9db7-57d60f7a29fa"><svg x="480" y="333" overflow="visible"><g fill="#9e9e9e"><polygon points="0 0, 64 37, -240 213, -304 176" stroke="#9e9e9e" stroke-width="40"></polygon></g></svg></g></g><g opacity="1"><g id="35061507-a343-4084-b9cf-ab535efdab76"><svg x="608" y="407" overflow="visible"><g fill="#9e9e9e"><polygon points="0 0, 64 37, -240 213, -304 176" stroke="#9e9e9e" stroke-width="40"></polygon></g></svg></g></g></g><g style="pointer-events: none;"><g><pattern id="gridPatternMajor" x="0" y="37" width="128" height="74" patternUnits="userSpaceOnUse"><path d="M 64 0 L 128 37 64 74 0 37 z" stroke="#54626f" stroke-width="1" fill="none"></path></pattern><polygon points="0 0, 768 444, -192 999, -960 555" fill="url(#gridPatternMajor)"></polygon></g></g><g pointer-events="auto"></g><g></g><g pointer-events="auto"><g opacity="1"><g id="795d2f1d-d41f-4464-8d49-fd13c1ef8094"><g><g><polygon points="224 722, 288 722, 736 463, 736 426, 32 19, -448 296, -448 333" stroke="#673ab7" stroke-width="8" fill="none"></polygon></g><g><polygon points="32 19, 0 0, -224 130, -224 167" stroke="#673ab7" stroke-width="8" fill="#673ab7"></polygon><text font-family="Inconsolata" font-size="20pt" font-weight="bold" fill="#ffffff" transform="translate(-8 31) matrix(0.707 -0.409 0.707 0.409 0 0)" text-anchor="end">vpc-target</text><g transform="translate(0 5) matrix(0.707 0.409 -0.707 0.409 0 0)"><svg width="34" height="32" style="fill: rgb(255, 255, 255);"><svg xmlns="http://www.w3.org/2000/svg" width="34" height="32" viewBox="0 0 34 32"><path d="M34.286 20.571a6.858 6.858 0 0 1-6.857 6.857H8c-4.411 0-8-3.589-8-8a7.993 7.993 0 0 1 4.607-7.232c-.018-.25-.036-.518-.036-.768a9.137 9.137 0 0 1 9.143-9.143c3.821 0 7.089 2.339 8.464 5.679a4.439 4.439 0 0 1 2.964-1.107 4.58 4.58 0 0 1 4.571 4.571 4.49 4.49 0 0 1-.732 2.464c3.036.714 5.304 3.429 5.304 6.679z"></path></svg></svg></g></g></g></g></g><g opacity="1"><g id="f4035081-7c85-43f8-93d4-6cecc6381474"><g><g><polygon points="-96 907, -32 907, 160 796, 160 759, -544 352, -768 481, -768 518" stroke="#3f51b5" stroke-width="8" fill="none"></polygon></g><g><polygon points="-544 352, -576 333, -768 444, -768 481" stroke="#3f51b5" stroke-width="8" fill="#3f51b5"></polygon><text font-family="Inconsolata" font-size="20pt" font-weight="bold" fill="#ffffff" transform="translate(-584 364) matrix(0.707 -0.409 0.707 0.409 0 0)" text-anchor="end">privx.io</text><g transform="translate(-576 338) matrix(0.707 0.409 -0.707 0.409 0 0)"><svg width="34" height="32" style="fill: rgb(255, 255, 255);"><svg xmlns="http://www.w3.org/2000/svg" width="34" height="32" viewBox="0 0 34 32"><path d="M34.286 20.571a6.858 6.858 0 0 1-6.857 6.857H8c-4.411 0-8-3.589-8-8a7.993 7.993 0 0 1 4.607-7.232c-.018-.25-.036-.518-.036-.768a9.137 9.137 0 0 1 9.143-9.143c3.821 0 7.089 2.339 8.464 5.679a4.439 4.439 0 0 1 2.964-1.107 4.58 4.58 0 0 1 4.571 4.571 4.49 4.49 0 0 1-.732 2.464c3.036.714 5.304 3.429 5.304 6.679z"></path></svg></svg></g></g></g></g></g></g><g></g><g pointer-events="auto"><g opacity="1"><g id="9c1bdbdf-719b-4982-bd9e-58a06f1570c3"><svg x="16" y="120" overflow="visible"><polygon points="0 0, 576 333, 512 370, -64 37" fill="#f5b720"></polygon><polygon points="0 0, 576 333, 512 370, -64 37" fill="none" stroke-width="20" stroke="#f5b720" opacity="1"></polygon><g cursor="nwse-resize"><polygon points="0 0, -19 -11, 13 -30, -83 -11, -115 44, -83 26, -64 37" fill="#f5b720"></polygon><polygon points="576 333, 595 344, 627 326, 595 381, 499 400, 531 381, 512 370" fill="#f5b720"></polygon></g></svg></g></g></g><g pointer-events="none"></g><g pointer-events="auto"><g><g cursor="cell"><line x1="-748" y1="617" x2="-605" y2="535" stroke="red" stroke-width="11" opacity="0"></line><line x1="-748" y1="617" x2="-605" y2="535" stroke="#000000" stroke-width="5" stroke-linecap="round"></line><polygon points="-592 527, -627 535, -609 537, -605 548, -592 527" stroke-linejoin="round" fill="#000000" stroke="#000000" stroke-width="1"></polygon></g></g><g><g><g cursor="cell"><line x1="-64" y1="204" x2="-16" y2="176" stroke="red" stroke-width="8" opacity="0"></line><line x1="-64" y1="204" x2="-16" y2="176" stroke="#000000" stroke-width="2" stroke-linecap="none"></line></g><g cursor="cell"><line x1="-64" y1="222" x2="-64" y2="204" stroke="red" stroke-width="8" opacity="0"></line><line x1="-64" y1="222" x2="-64" y2="204" stroke="#000000" stroke-width="2" stroke-linecap="round"></line></g><g cursor="cell"><line x1="448" y1="500" x2="496" y2="472" stroke="red" stroke-width="8" opacity="0"></line><line x1="448" y1="500" x2="496" y2="472" stroke="#000000" stroke-width="2" stroke-linecap="none"></line></g><g cursor="cell"><line x1="416" y1="500" x2="448" y2="500" stroke="red" stroke-width="8" opacity="0"></line><line x1="416" y1="500" x2="448" y2="500" stroke="#000000" stroke-width="2" stroke-linecap="round"></line></g><g cursor="cell"><line x1="-64" y1="222" x2="416" y2="500" stroke="red" stroke-width="8" opacity="0"></line><line x1="-64" y1="222" x2="416" y2="500" stroke="#000000" stroke-width="2" stroke-linecap="round"></line></g><g cursor="cell"><line x1="320" y1="444" x2="170" y2="531" stroke="red" stroke-width="8" opacity="0"></line><line x1="320" y1="444" x2="170" y2="531" stroke="#000000" stroke-width="2" stroke-linecap="round"></line><polygon points="160 537, 186 531, 172 529, 169 522, 160 537" stroke-linejoin="round" fill="#000000" stroke="#000000" stroke-width="1"></polygon></g></g></g><g><g cursor="cell"><line x1="-432" y1="583" x2="-376" y2="615" stroke="red" stroke-width="7" opacity="0"></line><line x1="-432" y1="583" x2="-376" y2="615" stroke="#000000" stroke-width="1" stroke-linecap="round"></line><polygon points="-368 620, -376 607, -379 613, -390 615, -368 620" stroke-linejoin="round" fill="#000000" stroke="#000000" stroke-width="1"></polygon></g></g><g><g cursor="cell"><line x1="-224" y1="426" x2="-256" y2="426" stroke="red" stroke-width="7" opacity="0"></line><line x1="-224" y1="426" x2="-256" y2="426" stroke="#000000" stroke-width="1" stroke-linecap="round"></line></g></g><g><g cursor="cell"><line x1="-256" y1="370" x2="-64" y2="481" stroke="red" stroke-width="11" opacity="0"></line><line x1="-256" y1="370" x2="-64" y2="481" stroke="#000000" stroke-width="5" stroke-linecap="round"></line></g></g><g><g cursor="cell"><line x1="-208" y1="453" x2="-432" y2="583" stroke="red" stroke-width="7" opacity="0"></line><line x1="-208" y1="453" x2="-432" y2="583" stroke="#000000" stroke-width="1" stroke-linecap="round"></line></g></g><g><g cursor="cell"><line x1="-256" y1="426" x2="-480" y2="555" stroke="red" stroke-width="7" opacity="0"></line><line x1="-256" y1="426" x2="-480" y2="555" stroke="#000000" stroke-width="1" stroke-linecap="round"></line></g></g><g><g cursor="cell"><line x1="-224" y1="426" x2="-208" y2="453" stroke="red" stroke-width="7" opacity="0"></line><line x1="-224" y1="426" x2="-208" y2="453" stroke="#000000" stroke-width="1" stroke-linecap="round"></line></g></g><g><g cursor="cell"><line x1="-320" y1="370" x2="-483" y2="464" stroke="red" stroke-width="11" opacity="0"></line><line x1="-320" y1="370" x2="-483" y2="464" stroke="#000000" stroke-width="5" stroke-linecap="round"></line><polygon points="-496 472, -461 464, -479 462, -483 451, -496 472" stroke-linejoin="round" fill="#000000" stroke="#000000" stroke-width="1"></polygon></g></g><g><g cursor="cell"><line x1="-64" y1="481" x2="163" y2="350" stroke="red" stroke-width="11" opacity="0"></line><line x1="-64" y1="481" x2="163" y2="350" stroke="#000000" stroke-width="5" stroke-linecap="round"></line><polygon points="176 342, 141 350, 159 352, 163 363, 176 342" stroke-linejoin="round" fill="#000000" stroke="#000000" stroke-width="1"></polygon></g></g><g><g cursor="cell"><line x1="-480" y1="555" x2="-520" y2="532" stroke="red" stroke-width="7" opacity="0"></line><line x1="-480" y1="555" x2="-520" y2="532" stroke="#000000" stroke-width="1" stroke-linecap="round"></line><polygon points="-528 527, -520 540, -517 534, -506 532, -528 527" stroke-linejoin="round" fill="#000000" stroke="#000000" stroke-width="1"></polygon></g></g><g><g cursor="cell"><line x1="-112" y1="694" x2="56" y2="597" stroke="red" stroke-width="7" opacity="0"></line><line x1="-112" y1="694" x2="56" y2="597" stroke="#000000" stroke-width="1" stroke-linecap="round"></line><polygon points="64 592, 42 597, 53 598, 56 605, 64 592" stroke-linejoin="round" fill="#000000" stroke="#000000" stroke-width="1"></polygon></g></g><g><g cursor="cell"><line x1="-336" y1="675" x2="-512" y2="777" stroke="red" stroke-width="7" opacity="0"></line><line x1="-336" y1="675" x2="-512" y2="777" stroke="#000000" stroke-width="1" stroke-linecap="round"></line></g></g><g><g cursor="cell"><line x1="-256" y1="370" x2="-224" y2="426" stroke="red" stroke-width="7" opacity="0"></line><line x1="-256" y1="370" x2="-224" y2="426" stroke="#000000" stroke-width="1" stroke-linecap="round"></line></g></g><g><g cursor="cell"><line x1="-272" y1="675" x2="-240" y2="694" stroke="red" stroke-width="8" opacity="0"></line><line x1="-272" y1="675" x2="-240" y2="694" stroke="#000000" stroke-width="2" stroke-linecap="round"></line></g></g><g><g cursor="cell"><line x1="-512" y1="777" x2="-737" y2="647" stroke="red" stroke-width="7" opacity="0"></line><line x1="-512" y1="777" x2="-737" y2="647" stroke="#000000" stroke-width="1" stroke-linecap="round"></line><polygon points="-745 642, -737 655, -734 649, -723 647, -745 642" stroke-linejoin="round" fill="#000000" stroke="#000000" stroke-width="1"></polygon></g></g></g><g pointer-events="auto"><g opacity="1"><g id="8a555ddd-0a0f-4e41-b29b-a21af687f1f6" transform="translate(0 0)"><svg x="-48" y="83" height="111" width="128" fill-rule="evenodd"><path d="M64 74v37l64-37V37L64 74z" fill="#b8b8bb"></path><path d="M0 37v37l64 37V74L0 37z" fill="#d2d2d4"></path><path d="M0 37L64 0l64 37-64 37L0 37z" fill="#ececed"></path><path d="M64 73.407l62.111-35.86.514.889-62.487 36.078h-.276L.743 38.072l.514-.89L64 73.407z" fill="#83838a"></path><path d="M63.486 74h1.027v36h-1.027z" fill="#83838a"></path><path d="M128 37v37l-64 37L0 74V37L64 0l64 37zM2.054 38.185v34.63L64 108.627l61.946-35.812v-34.63L64 2.373 2.054 38.185z" fill="#000000"></path></svg><svg x="10" y="102" width="54" height="36" style="overflow: visible; cursor: default;"><rect transform="matrix(0.707 0.409 -0.707 0.409 0 0)" width="54" height="36" rx="5" ry="5" fill="#4286c5"></rect><text transform="matrix(0.707 0.409 -0.707 0.409 0 0)" font-family="Open Sans" text-anchor="middle" x="50%" font-weight="normal" font-size="20pt" y="80%" fill="#ffffff"><tspan>T3</tspan></text></svg></g></g><g opacity="1"><g id="9e2479cd-6c4b-4202-9f1f-1ff476917eeb" transform="translate(0 0)"><svg x="80" y="157" height="111" width="128" fill-rule="evenodd"><path d="M64 74v37l64-37V37L64 74z" fill="#b8b8bb"></path><path d="M0 37v37l64 37V74L0 37z" fill="#d2d2d4"></path><path d="M0 37L64 0l64 37-64 37L0 37z" fill="#ececed"></path><path d="M64 73.407l62.111-35.86.514.889-62.487 36.078h-.276L.743 38.072l.514-.89L64 73.407z" fill="#83838a"></path><path d="M63.486 74h1.027v36h-1.027z" fill="#83838a"></path><path d="M128 37v37l-64 37L0 74V37L64 0l64 37zM2.054 38.185v34.63L64 108.627l61.946-35.812v-34.63L64 2.373 2.054 38.185z" fill="#000000"></path></svg><svg x="138" y="176" width="54" height="36" style="overflow: visible; cursor: default;"><rect transform="matrix(0.707 0.409 -0.707 0.409 0 0)" width="54" height="36" rx="5" ry="5" fill="#4286c5"></rect><text transform="matrix(0.707 0.409 -0.707 0.409 0 0)" font-family="Open Sans" text-anchor="middle" x="50%" font-weight="normal" font-size="20pt" y="80%" fill="#ffffff"><tspan>T3</tspan></text></svg></g></g><g opacity="1"><g id="cfb91154-4686-4851-a305-8414a113bd6d" transform="translate(0 0)"><svg x="208" y="231" height="111" width="128" fill-rule="evenodd"><path d="M64 74v37l64-37V37L64 74z" fill="#b8b8bb"></path><path d="M0 37v37l64 37V74L0 37z" fill="#d2d2d4"></path><path d="M0 37L64 0l64 37-64 37L0 37z" fill="#ececed"></path><path d="M64 73.407l62.111-35.86.514.889-62.487 36.078h-.276L.743 38.072l.514-.89L64 73.407z" fill="#83838a"></path><path d="M63.486 74h1.027v36h-1.027z" fill="#83838a"></path><path d="M128 37v37l-64 37L0 74V37L64 0l64 37zM2.054 38.185v34.63L64 108.627l61.946-35.812v-34.63L64 2.373 2.054 38.185z" fill="#000000"></path></svg><svg x="266" y="250" width="54" height="36" style="overflow: visible; cursor: default;"><rect transform="matrix(0.707 0.409 -0.707 0.409 0 0)" width="54" height="36" rx="5" ry="5" fill="#4286c5"></rect><text transform="matrix(0.707 0.409 -0.707 0.409 0 0)" font-family="Open Sans" text-anchor="middle" x="50%" font-weight="normal" font-size="20pt" y="80%" fill="#ffffff"><tspan>T3</tspan></text></svg></g></g><g opacity="1"><g id="96f9ecee-71ea-471a-8f21-be0dabb3ec97" transform="translate(0 0)"><svg x="336" y="305" height="111" width="128" fill-rule="evenodd"><path d="M64 74v37l64-37V37L64 74z" fill="#b8b8bb"></path><path d="M0 37v37l64 37V74L0 37z" fill="#d2d2d4"></path><path d="M0 37L64 0l64 37-64 37L0 37z" fill="#ececed"></path><path d="M64 73.407l62.111-35.86.514.889-62.487 36.078h-.276L.743 38.072l.514-.89L64 73.407z" fill="#83838a"></path><path d="M63.486 74h1.027v36h-1.027z" fill="#83838a"></path><path d="M128 37v37l-64 37L0 74V37L64 0l64 37zM2.054 38.185v34.63L64 108.627l61.946-35.812v-34.63L64 2.373 2.054 38.185z" fill="#000000"></path></svg><svg x="394" y="324" width="54" height="36" style="overflow: visible; cursor: default;"><rect transform="matrix(0.707 0.409 -0.707 0.409 0 0)" width="54" height="36" rx="5" ry="5" fill="#4286c5"></rect><text transform="matrix(0.707 0.409 -0.707 0.409 0 0)" font-family="Open Sans" text-anchor="middle" x="50%" font-weight="normal" font-size="20pt" y="80%" fill="#ffffff"><tspan>T3</tspan></text></svg></g></g><g opacity="1"><g id="528b1fab-0a28-4c7a-99c5-12e7eb7a9b6c" transform="translate(0 0)"><svg x="464" y="379" height="111" width="128" fill-rule="evenodd"><path d="M64 74v37l64-37V37L64 74z" fill="#b8b8bb"></path><path d="M0 37v37l64 37V74L0 37z" fill="#d2d2d4"></path><path d="M0 37L64 0l64 37-64 37L0 37z" fill="#ececed"></path><path d="M64 73.407l62.111-35.86.514.889-62.487 36.078h-.276L.743 38.072l.514-.89L64 73.407z" fill="#83838a"></path><path d="M63.486 74h1.027v36h-1.027z" fill="#83838a"></path><path d="M128 37v37l-64 37L0 74V37L64 0l64 37zM2.054 38.185v34.63L64 108.627l61.946-35.812v-34.63L64 2.373 2.054 38.185z" fill="#000000"></path></svg><svg x="522" y="398" width="54" height="36" style="overflow: visible; cursor: default;"><rect transform="matrix(0.707 0.409 -0.707 0.409 0 0)" width="54" height="36" rx="5" ry="5" fill="#4286c5"></rect><text transform="matrix(0.707 0.409 -0.707 0.409 0 0)" font-family="Open Sans" text-anchor="middle" x="50%" font-weight="normal" font-size="20pt" y="80%" fill="#ffffff"><tspan>T3</tspan></text></svg></g></g><g opacity="1"><g id="3b8ef03c-6ad9-418f-838e-20e96fccef7f" transform="translate(0 0)"><g><polygon points="-288 278, -224 315, -288 352, -352 315" fill="#ff9800"></polygon><polygon points="-352 352, -288 389, -288 352, -352 315" fill="#cc7a00" stroke="#ffeacc"></polygon><polygon points="-288 389, -224 352, -224 315, -288 352" fill="#995b00" stroke="#ffeacc"></polygon><polygon points="-288 278, -352 315, -352 352, -288 389, -224 352, -224 315" fill="none" stroke="#000000" stroke-width="2"></polygon></g></g></g><g opacity="1"><g id="138b8771-0037-4595-badf-50937a034898" transform="translate(0 0)"><g><polygon points="96 500, 160 537, 96 574, 32 537" fill="#fff"></polygon><polygon points="32 574, 96 611, 96 574, 32 537" fill="#e6e6e6" stroke="#999"></polygon><polygon points="96 611, 160 574, 160 537, 96 574" fill="#ccc" stroke="#999"></polygon><polygon points="96 500, 32 537, 32 574, 96 611, 160 574, 160 537" fill="none" stroke="#000000" stroke-width="2"></polygon></g></g></g><g opacity="1"><g id="5415057c-b200-441b-b479-9ec0ad60470c" transform="translate(0 0)"><g><polygon points="-560 435, -496 472, -560 509, -624 472" fill="#000"></polygon><polygon points="-624 509, -560 546, -560 509, -624 472" fill="#000" stroke="#666"></polygon><polygon points="-560 546, -496 509, -496 472, -560 509" fill="#000" stroke="#666"></polygon><polygon points="-560 435, -624 472, -624 509, -560 546, -496 509, -496 472" fill="none" stroke="#000000" stroke-width="2"></polygon></g></g></g><g opacity="1"><g id="ba091207-861a-4cf2-a315-d87262b86c3f" transform="translate(0 0)"><g><polygon points="-304 583, -240 620, -304 657, -368 620" fill="#fff"></polygon><polygon points="-368 657, -304 694, -304 657, -368 620" fill="#e6e6e6" stroke="#999"></polygon><polygon points="-304 694, -240 657, -240 620, -304 657" fill="#ccc" stroke="#999"></polygon><polygon points="-304 583, -368 620, -368 657, -304 694, -240 657, -240 620" fill="none" stroke="#000000" stroke-width="2"></polygon></g></g></g><g opacity="1"><g id="d2438809-d9da-4784-86f8-4ffceb473eba" transform="translate(0 0)"><g><polygon points="-176 657, -112 694, -176 731, -240 694" fill="#fff"></polygon><polygon points="-240 731, -176 768, -176 731, -240 694" fill="#e6e6e6" stroke="#999"></polygon><polygon points="-176 768, -112 731, -112 694, -176 731" fill="#ccc" stroke="#999"></polygon><polygon points="-176 657, -240 694, -240 731, -176 768, -112 731, -112 694" fill="none" stroke="#000000" stroke-width="2"></polygon></g></g></g><g opacity="1"><g id="e380aeb6-b36d-40e9-9cfa-c2706dbe2cca" transform="translate(0 0)"><svg x="-808" y="552" height="95.068" width="63" viewBox="0 0 16.669 25.153"><path d="M16.668 22.903q0 1.64-.864 2.091-.865.451-2.297-.376L3.161 18.645q-1.433-.827-2.297-2.276Q.001 14.921 0 13.28q0-.723.042-1.39.042-.666.166-1.394.124-.727.313-1.302.19-.575.51-1.039.319-.464.733-.683.414-.22 1.012-.147.598.073 1.32.49.107.06.497.58.391.52.882 1.165.491.646 1.279 1.394.788.75 1.58 1.207.793.458 1.58.618.788.161 1.28.083.49-.079.881-.147.39-.069.497-.007.722.416 1.32 1.035.598.619 1.013 1.315.414.697.734 1.531t.509 1.627q.19.793.313 1.664.124.872.166 1.586.042.713.042 1.438zM12.88 8.51q0 2.173-1.332 2.942-1.332.769-3.214-.318-1.882-1.086-3.214-3.393Q3.79 5.434 3.79 3.26q0-2.173 1.331-2.942 1.332-.77 3.214.317t3.214 3.394q1.332 2.306 1.332 4.48z" fill="#000" stroke="#000000" stroke-width=".268"></path></svg></g></g></g><g pointer-events="auto"></g><g pointer-events="auto"><g opacity="1"><g id="a8b1184e-6996-4b31-8171-19cf92667dae" transform="translate(0 0)"><svg x="-288" y="315" overflow="visible"><g transform="scale(0.9659813662799094) matrix(0.707 -0.409 0.707 0.409 0 0)"><circle cx="0" cy="0" fill="transparent" r="37.5"></circle><svg width="75" height="75" x="-37.5" y="-37.5"><svg xmlns="http://www.w3.org/2000/svg" viewBox="0 0 75 75"><defs><linearGradient id="OrangeGradient" x1="-15.54" y1="90.54" x2="90.53" y2="-15.53" gradientUnits="userSpaceOnUse"><stop offset="0" stop-color="#c8511b"></stop><stop offset="1" stop-color="#f90"></stop></linearGradient></defs><g id="Reference"><path id="Orange_Gradient" data-name="Orange Gradient" fill="url(#OrangeGradient)" d="M0 0h75v75H0z"></path><g id="Icon_Test" data-name="Icon Test" fill="#fff"><path d="M24.79 36.41a1.64 1.64 0 0 0 .24.23 5.32 5.32 0 0 0 .47.36l.11.06a4.82 4.82 0 0 0 .5.27l.31.13H26.63l.25.11c.47.17 1 .37 1.58.55l.91.27.49.13a31 31 0 0 0 7.64.89 27.7 27.7 0 0 0 11.4-2.18 4.44 4.44 0 0 0 2.6-4V18.88a1.58 1.58 0 0 0-.9-1.42l-12.42-5.8a1.52 1.52 0 0 0-1.33 0l-12.45 5.8a1.58 1.58 0 0 0-.9 1.42v14.4a4.44 4.44 0 0 0 1.09 2.92 2 2 0 0 0 .2.21zm5.1.14l-.84-.25c-.54-.17-1-.35-1.41-.49l-.36-.15-.34-.16a3.41 3.41 0 0 1-.33-.17l-.25-.19-.13-.14a.3.3 0 0 0-.08-.08l-.08-.09a2.42 2.42 0 0 1-.59-1.59V20.08l11 5.15v12.24a27.82 27.82 0 0 1-6.15-.8zm18.2-1.06a24.89 24.89 0 0 1-9.6 2V25.42l11-5v12.8a2.42 2.42 0 0 1-1.4 2.27zM37.5 13.55l11.06 5.16-10.88 4.88-.08-.05-10.75-5z"></path><path d="M54.78 27.68l-.56 1.92c4.49 1.32 7.28 3.2 7.28 4.9 0 3.31-9.86 7-24 7s-24-3.69-24-7c0-1.7 2.79-3.58 7.28-4.9l-.56-1.92c-5.62 1.65-8.72 4.08-8.72 6.82 0 5.84 13.4 9 26 9s26-3.16 26-9c0-2.74-3.1-5.16-8.72-6.82zM54.72 46.64l-4.65-2a1.3 1.3 0 0 0-1.14 0l-4.75 2.05a1.22 1.22 0 0 0-.68 1.1v5.15L39.07 51a1.34 1.34 0 0 0-1.14 0l-4.46 1.93v-5.16a1.25 1.25 0 0 0-.74-1.13l-4.66-2a1.28 1.28 0 0 0-1.13 0l-4.76 2.05a1.22 1.22 0 0 0-.68 1.1v6.08a1.25 1.25 0 0 0 .74 1.13l4.65 2H27a1.33 1.33 0 0 0 .5.11A1 1 0 0 0 28 57l4.49-1.93v5.15a1.25 1.25 0 0 0 .74 1.12l4.64 2h.07a1.29 1.29 0 0 0 .54.12 1.1 1.1 0 0 0 .51-.12l4.77-2.05a1.24 1.24 0 0 0 .68-1.1v-5.12L48.88 57H49a1.46 1.46 0 0 0 .54.12A1.1 1.1 0 0 0 50 57l4.78-2a1.22 1.22 0 0 0 .68-1.1v-6.13a1.25 1.25 0 0 0-.74-1.13zm-5.24-.08l2.73 1.16-2.56 1.05L47 47.63zm-11 6.38l2.73 1.16-2.56 1L36 54zm-11-6.38l2.72 1.17-2.56 1-2.64-1.1zm-4 2.6l3 1.28v4.2l-3-1.29zm5 5.47v-4l3-1.23v4zm6 .9l3 1.29V61l-3-1.29zm5 5.48V57l3-1.24v4zm6-11.85l3 1.28v4.2l-3-1.29zm5 5.48v-4l3-1.24v4z"></path></g></g></svg></svg></g></svg></g></g><g opacity="1"><g id="3d161ac4-ef32-4b9f-b546-f7bdaccab854" transform="translate(0 0)"><svg x="96" y="537" overflow="visible"><g transform="scale(1.3975424859373686) matrix(0.707 0.409 -0.707 0.409 0 0)"><circle cx="0" cy="0" fill="#000000" r="23"></circle><svg width="30" height="32" x="-15" y="-16" style="fill: rgb(255, 255, 255);"><svg xmlns="http://www.w3.org/2000/svg" width="30" height="32" viewBox="0 0 30 32"><path d="M14.857 9.143a3.43 3.43 0 0 0-6.858 0c0 .518.125 1.018.339 1.482a3.533 3.533 0 0 0-1.482-.339 3.43 3.43 0 0 0 0 6.858 3.43 3.43 0 0 0 3.429-3.429c0-.518-.125-1.018-.339-1.482.464.214.964.339 1.482.339a3.43 3.43 0 0 0 3.429-3.429zm15.197 12.571c0 .411-1.643 2.054-2.054 2.054-.464 0-1.911-1.679-2.286-2.054L24 23.428l3.929 3.929c.321.321.5.768.5 1.214 0 1-1.143 2.143-2.143 2.143-.446 0-.893-.179-1.214-.5L13.09 18.232c-1.875 1.393-4.161 2.339-6.518 2.339C2.679 20.571.001 17.875.001 14c0-5.857 5.857-11.714 11.714-11.714 3.875 0 6.571 2.679 6.571 6.571 0 2.357-.946 4.643-2.339 6.518l6.339 6.339L24 20c-.375-.375-2.054-1.821-2.054-2.286 0-.411 1.643-2.054 2.054-2.054.143 0 .304.071.411.179.661.661 5.643 5.357 5.643 5.875z"></path></svg></svg></g></svg></g></g><g opacity="1"><g id="f15cd4ec-6dbd-4b06-b230-ccdfed74e131" transform="translate(0 0)"><svg x="-304" y="620" overflow="visible"><g transform="scale(1.3975424859373686) matrix(0.707 0.409 -0.707 0.409 0 0)"><circle cx="0" cy="0" fill="#000000" r="25.5"></circle><svg width="37" height="32" x="-18.5" y="-16" style="fill: rgb(255, 255, 255);"><svg xmlns="http://www.w3.org/2000/svg" width="37" height="32" viewBox="0 0 37 32"><path d="M16 21.643C16 22.947 15.143 24 14.089 24H6.482c-1.054 0-1.911-1.054-1.911-2.357 0-2.357.571-5.071 2.929-5.071.714.714 1.696 1.143 2.786 1.143s2.071-.429 2.786-1.143c2.357 0 2.929 2.714 2.929 5.071zm-2.286-7.929a3.43 3.43 0 0 1-6.858 0 3.43 3.43 0 0 1 6.858 0zM32 21.143v1.143c0 .321-.25.571-.571.571H18.858a.564.564 0 0 1-.571-.571v-1.143c0-.321.25-.571.571-.571h12.571c.321 0 .571.25.571.571zm-6.857-4.572v1.143c0 .321-.25.571-.571.571h-5.714a.564.564 0 0 1-.571-.571v-1.143c0-.321.25-.571.571-.571h5.714c.321 0 .571.25.571.571zm6.857 0v1.143c0 .321-.25.571-.571.571H28a.564.564 0 0 1-.571-.571v-1.143c0-.321.25-.571.571-.571h3.429c.321 0 .571.25.571.571zM32 12v1.143c0 .321-.25.571-.571.571H18.858a.564.564 0 0 1-.571-.571V12c0-.321.25-.571.571-.571h12.571c.321 0 .571.25.571.571zm2.286 14.857v-20h-32v20c0 .304.268.571.571.571h30.857a.587.587 0 0 0 .571-.571zm2.285-21.714v21.714a2.866 2.866 0 0 1-2.857 2.857H2.857A2.866 2.866 0 0 1 0 26.857V5.143a2.866 2.866 0 0 1 2.857-2.857h30.857a2.866 2.866 0 0 1 2.857 2.857z"></path></svg></svg></g></svg></g></g><g opacity="1"><g id="635ad001-c7f8-47f1-bf64-ce10338c3b6d" transform="translate(0 0)"><svg x="-176" y="694" overflow="visible"><g transform="scale(1.3975424859373686) matrix(0.707 0.409 -0.707 0.409 0 0)"><circle cx="0" cy="0" fill="#000000" r="23"></circle><svg width="30" height="32" x="-15" y="-16" style="fill: rgb(255, 255, 255);"><svg xmlns="http://www.w3.org/2000/svg" width="30" height="32" viewBox="0 0 30 32"><path d="M14.857 9.143a3.43 3.43 0 0 0-6.858 0c0 .518.125 1.018.339 1.482a3.533 3.533 0 0 0-1.482-.339 3.43 3.43 0 0 0 0 6.858 3.43 3.43 0 0 0 3.429-3.429c0-.518-.125-1.018-.339-1.482.464.214.964.339 1.482.339a3.43 3.43 0 0 0 3.429-3.429zm15.197 12.571c0 .411-1.643 2.054-2.054 2.054-.464 0-1.911-1.679-2.286-2.054L24 23.428l3.929 3.929c.321.321.5.768.5 1.214 0 1-1.143 2.143-2.143 2.143-.446 0-.893-.179-1.214-.5L13.09 18.232c-1.875 1.393-4.161 2.339-6.518 2.339C2.679 20.571.001 17.875.001 14c0-5.857 5.857-11.714 11.714-11.714 3.875 0 6.571 2.679 6.571 6.571 0 2.357-.946 4.643-2.339 6.518l6.339 6.339L24 20c-.375-.375-2.054-1.821-2.054-2.286 0-.411 1.643-2.054 2.054-2.054.143 0 .304.071.411.179.661.661 5.643 5.357 5.643 5.875z"></path></svg></svg></g></svg></g></g></g><g pointer-events="auto"><g opacity="1"><g id="68927ed3-2649-481a-9d43-df6444f3dc9c" transform="translate(0 0)"><svg x="-304" y="250" overflow="visible"><text stroke="#000000" stroke-width="0" font-family="Open Sans" y="46.76" font-size="34pt" fill="#ffffff" font-weight="bold" transform="matrix(0.707 -0.409 0.707 0.409 0 0)" xml:space="preserve"><tspan x="8" dy="0">az</tspan></text><text font-family="Open Sans" y="46.76" font-size="34pt" fill="#ffffff" font-weight="bold" transform="matrix(0.707 -0.409 0.707 0.409 0 0)" xml:space="preserve"><tspan x="8" dy="0">az</tspan></text></svg></g></g><g opacity="1"><g id="8945b301-7f45-42fe-a799-489205d91122" transform="translate(0 0)"><svg x="-256" y="222" overflow="visible"><text stroke="#000000" stroke-width="0" font-family="Open Sans" y="71.84" font-size="56pt" fill="#ffffff" font-weight="bold" transform="matrix(0.707 -0.409 0.707 0.409 0 0)" xml:space="preserve"><tspan x="8" dy="0">A</tspan></text><text font-family="Open Sans" y="71.84" font-size="56pt" fill="#ffffff" font-weight="bold" transform="matrix(0.707 -0.409 0.707 0.409 0 0)" xml:space="preserve"><tspan x="8" dy="0">A</tspan></text></svg></g></g><g opacity="1"><g id="af7ed595-56f6-4ac1-b9a9-73c598599a57" transform="translate(0 0)"><svg x="224" y="500" overflow="visible"><text stroke="#000000" stroke-width="0" font-family="Open Sans" y="71.84" font-size="56pt" fill="#ffffff" font-weight="bold" transform="matrix(0.707 -0.409 0.707 0.409 0 0)" xml:space="preserve"><tspan x="8" dy="0">B</tspan></text><text font-family="Open Sans" y="71.84" font-size="56pt" fill="#ffffff" font-weight="bold" transform="matrix(0.707 -0.409 0.707 0.409 0 0)" xml:space="preserve"><tspan x="8" dy="0">B</tspan></text></svg></g></g><g opacity="1"><g id="b964fa2b-5524-4643-b8e3-0b8c78337ae9" transform="translate(0 0)"><svg x="352" y="574" overflow="visible"><text stroke="#000000" stroke-width="0" font-family="Open Sans" y="71.84" font-size="56pt" fill="#ffffff" font-weight="bold" transform="matrix(0.707 -0.409 0.707 0.409 0 0)" xml:space="preserve"><tspan x="8" dy="0">C</tspan></text><text font-family="Open Sans" y="71.84" font-size="56pt" fill="#ffffff" font-weight="bold" transform="matrix(0.707 -0.409 0.707 0.409 0 0)" xml:space="preserve"><tspan x="8" dy="0">C</tspan></text></svg></g></g><g opacity="1"><g id="ba69be2e-8a32-47fe-9e41-29580af2a741" transform="translate(0 0)"><svg x="176" y="527" overflow="visible"><text stroke="#000000" stroke-width="0" font-family="Open Sans" y="46.76" font-size="34pt" fill="#ffffff" font-weight="bold" transform="matrix(0.707 -0.409 0.707 0.409 0 0)" xml:space="preserve"><tspan x="8" dy="0">az</tspan></text><text font-family="Open Sans" y="46.76" font-size="34pt" fill="#ffffff" font-weight="bold" transform="matrix(0.707 -0.409 0.707 0.409 0 0)" xml:space="preserve"><tspan x="8" dy="0">az</tspan></text></svg></g></g><g opacity="1"><g id="b93e84be-9c44-4a0d-9932-62c85832b921" transform="translate(0 0)"><svg x="304" y="601" overflow="visible"><text stroke="#000000" stroke-width="0" font-family="Open Sans" y="46.76" font-size="34pt" fill="#ffffff" font-weight="bold" transform="matrix(0.707 -0.409 0.707 0.409 0 0)" xml:space="preserve"><tspan x="8" dy="0">az</tspan></text><text font-family="Open Sans" y="46.76" font-size="34pt" fill="#ffffff" font-weight="bold" transform="matrix(0.707 -0.409 0.707 0.409 0 0)" xml:space="preserve"><tspan x="8" dy="0">az</tspan></text></svg></g></g><g opacity="1"><g id="974387e9-ecaa-4f74-994e-61456af4d3ca" transform="translate(0 0)"><svg x="144" y="287" overflow="visible"><text stroke="#ffffff" stroke-width="0" font-family="Open Sans" y="36.5" font-size="25pt" fill="#000000" font-weight="bold" transform="matrix(0.707 0.409 -0.707 0.409 0 0)" xml:space="preserve"><tspan x="8" dy="0">EC2 targets</tspan></text><text font-family="Open Sans" y="36.5" font-size="25pt" fill="#000000" font-weight="bold" transform="matrix(0.707 0.409 -0.707 0.409 0 0)" xml:space="preserve"><tspan x="8" dy="0">EC2 targets</tspan></text></svg></g></g><g opacity="1"><g id="1bd59bec-00ed-49b2-ae61-8d2669935de9" transform="translate(0 0)"><svg x="-624" y="472" overflow="visible"><text stroke="#000000" stroke-width="0" font-family="Open Sans" y="30.799999999999997" font-size="20pt" fill="#ffffff" font-weight="bold" transform="matrix(0.707, 0.409, 0, 0.816, 0, 0)" xml:space="preserve"><tspan x="8" dy="0">privx</tspan></text><text font-family="Open Sans" y="30.799999999999997" font-size="20pt" fill="#ffffff" font-weight="bold" transform="matrix(0.707, 0.409, 0, 0.816, 0, 0)" xml:space="preserve"><tspan x="8" dy="0">privx</tspan></text></svg></g></g><g opacity="1"><g id="4d9c51c6-07d5-4b32-8b53-10774406160c" transform="translate(0 0)"><svg x="-368" y="620" overflow="visible"><text stroke="#ffffff" stroke-width="0" font-family="Open Sans" y="30.799999999999997" font-size="20pt" fill="#000000" font-weight="bold" transform="matrix(0.707, 0.409, 0, 0.816, 0, 0)" xml:space="preserve"><tspan x="8" dy="0">role</tspan></text><text font-family="Open Sans" y="30.799999999999997" font-size="20pt" fill="#000000" font-weight="bold" transform="matrix(0.707, 0.409, 0, 0.816, 0, 0)" xml:space="preserve"><tspan x="8" dy="0">role</tspan></text></svg></g></g><g opacity="1"><g id="eec1142d-bac9-4025-9068-edfd5bb6aa01" transform="translate(0 0)"><svg x="-240" y="694" overflow="visible"><text stroke="#ffffff" stroke-width="0" font-family="Open Sans" y="26.24" font-size="16pt" fill="#000000" font-weight="bold" transform="matrix(0.707, 0.409, 0, 0.816, 0, 0)" xml:space="preserve"><tspan x="8" dy="0">ssh key</tspan></text><text font-family="Open Sans" y="26.24" font-size="16pt" fill="#000000" font-weight="bold" transform="matrix(0.707, 0.409, 0, 0.816, 0, 0)" xml:space="preserve"><tspan x="8" dy="0">ssh key</tspan></text></svg></g></g><g opacity="1"><g id="53e28436-bca4-4876-b3d1-8b384659cc1d" transform="translate(0 0)"><svg x="32" y="537" overflow="visible"><text stroke="#ffffff" stroke-width="0" font-family="Open Sans" y="26.24" font-size="16pt" fill="#000000" font-weight="bold" transform="matrix(0.707, 0.409, 0, 0.816, 0, 0)" xml:space="preserve"><tspan x="8" dy="0">ssh key</tspan></text><text font-family="Open Sans" y="26.24" font-size="16pt" fill="#000000" font-weight="bold" transform="matrix(0.707, 0.409, 0, 0.816, 0, 0)" xml:space="preserve"><tspan x="8" dy="0">ssh key</tspan></text></svg></g></g><g opacity="1"><g id="0ca213d1-caf6-4986-ac4c-d0a006c7e802" transform="translate(0 0)"><svg x="-432" y="583" overflow="visible"><text stroke="#ffffff" stroke-width="0" font-family="Open Sans" y="26.24" font-size="16pt" fill="#000000" font-weight="bold" transform="matrix(0.707 -0.409 0.707 0.409 0 0)" xml:space="preserve"><tspan x="8" dy="0">create privx role</tspan></text><text font-family="Open Sans" y="26.24" font-size="16pt" fill="#000000" font-weight="bold" transform="matrix(0.707 -0.409 0.707 0.409 0 0)" xml:space="preserve"><tspan x="8" dy="0">create privx role</tspan></text></svg></g></g><g opacity="1"><g id="4ae4613a-ac6f-4c5c-8133-f7ab1f62aee3" transform="translate(0 0)"><svg x="-112" y="694" overflow="visible"><text stroke="#ffffff" stroke-width="4" font-family="Open Sans" y="26.24" font-size="16pt" fill="#000000" font-weight="bold" transform="matrix(0.707 -0.409 0.707 0.409 0 0)" xml:space="preserve"><tspan x="8" dy="0">import ssh key</tspan></text><text font-family="Open Sans" y="26.24" font-size="16pt" fill="#000000" font-weight="bold" transform="matrix(0.707 -0.409 0.707 0.409 0 0)" xml:space="preserve"><tspan x="8" dy="0">import ssh key</tspan></text></svg></g></g><g opacity="1"><g id="94f25066-8766-4cb6-a499-cddf17093683" transform="translate(0 0)"><svg x="-512" y="537" overflow="visible"><text stroke="#ffffff" stroke-width="0" font-family="Open Sans" y="26.24" font-size="16pt" fill="#000000" font-weight="bold" transform="matrix(0.707 -0.409 0.707 0.409 0 0)" xml:space="preserve"><tspan x="8" dy="0">register extender</tspan></text><text font-family="Open Sans" y="26.24" font-size="16pt" fill="#000000" font-weight="bold" transform="matrix(0.707 -0.409 0.707 0.409 0 0)" xml:space="preserve"><tspan x="8" dy="0">register extender</tspan></text></svg></g></g><g opacity="1"><g id="482d7818-97dc-41ff-8a2a-00b48f6adbc9" transform="translate(0 0)"><svg x="-528" y="786" overflow="visible"><text stroke="#ffffff" stroke-width="0" font-family="Open Sans" y="26.24" font-size="16pt" fill="#000000" font-weight="bold" transform="matrix(0.707 -0.409 0.707 0.409 0 0)" xml:space="preserve"><tspan x="8" dy="0">grant access</tspan></text><text font-family="Open Sans" y="26.24" font-size="16pt" fill="#000000" font-weight="bold" transform="matrix(0.707 -0.409 0.707 0.409 0 0)" xml:space="preserve"><tspan x="8" dy="0">grant access</tspan></text></svg></g></g></g><g></g></g></svg>